<?xml version="1.0" standalone="no"?>
<!DOCTYPE svg PUBLIC "-//W3C//DTD SVG 20010904//EN"
 "http://www.w3.org/TR/2001/REC-SVG-20010904/DTD/svg10.dtd">
<svg version="1.0" xmlns="http://www.w3.org/2000/svg"
 width="990.000000pt" height="990.000000pt" viewBox="0 0 990.000000 990.000000"
 preserveAspectRatio="xMidYMid meet">
<metadata>
Created by potrace 1.14, written by Peter Selinger 2001-2017
</metadata>
<g transform="translate(0.000000,990.000000) scale(0.100000,-0.100000)"
fill="#000000" stroke="none">
<path d="M3298 9895 c-2 -2 -28 -6 -58 -9 -331 -30 -577 -230 -660 -535 -32
-117 -33 -137 -37 -791 -4 -633 -4 -645 -24 -652 -19 -7 -19 -16 -17 -190 3
-167 5 -183 21 -182 16 2 17 -12 17 -167 0 -140 -3 -169 -15 -176 -13 -8 -15
-57 -13 -373 2 -286 6 -364 16 -363 9 2 12 -23 12 -102 0 -87 -3 -105 -15
-105 -13 0 -15 -48 -15 -370 0 -322 2 -370 15 -370 13 0 15 -265 15 -2327 1
-2244 2 -2414 14 -2513 9 -70 31 -164 44 -185 4 -5 7 -16 8 -23 4 -23 55 -115
94 -166 115 -155 284 -250 500 -284 60 -9 3475 -8 3520 1 199 42 317 102 433
220 107 110 174 257 203 442 4 22 7 1174 8 2559 2 1938 5 2521 14 2524 17 5
17 1179 0 1184 -9 3 -12 274 -14 1129 -1 618 -4 1136 -8 1152 -3 15 -8 37 -10
50 -9 42 -15 69 -22 90 -11 39 -57 152 -63 157 -3 3 -12 17 -19 31 -32 61
-127 157 -212 213 -75 49 -142 78 -220 96 -30 7 -62 15 -70 18 -8 2 -26 7 -40
9 -29 5 -3397 13 -3402 8z"/>
</g>
</svg>
